<svg width="173" height="44" viewBox="0 0 173 44" fill="none" xmlns="http://www.w3.org/2000/svg">
<rect width="173" height="44" rx="10" fill="#424242" fill-opacity="0.8"/>
<path d="M58.08 20.256C57.1733 20.256 56.3787 20.096 55.696 19.776C55.0133 19.4453 54.4427 19.0027 53.984 18.448C53.5253 17.8933 53.1787 17.2587 52.944 16.544C52.72 15.8293 52.608 15.0773 52.608 14.288C52.608 13.5093 52.72 12.7627 52.944 12.048C53.1787 11.3227 53.5253 10.6827 53.984 10.128C54.4427 9.57333 55.0133 9.13067 55.696 8.8C56.3787 8.46933 57.1733 8.304 58.08 8.304C58.9867 8.304 59.7813 8.46933 60.464 8.8C61.1467 9.13067 61.7173 9.57333 62.176 10.128C62.6347 10.6827 62.976 11.3227 63.2 12.048C63.4347 12.7627 63.552 13.5093 63.552 14.288C63.552 15.0773 63.4347 15.8293 63.2 16.544C62.976 17.2587 62.6347 17.8933 62.176 18.448C61.7173 19.0027 61.1467 19.4453 60.464 19.776C59.7813 20.096 58.9867 20.256 58.08 20.256ZM58.08 18.992C58.7733 18.992 59.3707 18.8587 59.872 18.592C60.3733 18.3147 60.784 17.952 61.104 17.504C61.424 17.056 61.6587 16.5547 61.808 16C61.9573 15.4347 62.032 14.864 62.032 14.288C62.032 13.712 61.9573 13.1467 61.808 12.592C61.6587 12.0267 61.424 11.52 61.104 11.072C60.784 10.624 60.3733 10.2667 59.872 10C59.3707 9.72267 58.7733 9.584 58.08 9.584C57.3867 9.584 56.7893 9.72267 56.288 10C55.7867 10.2667 55.376 10.624 55.056 11.072C54.736 11.52 54.5013 12.0267 54.352 12.592C54.2027 13.1467 54.128 13.712 54.128 14.288C54.128 14.864 54.2027 15.4347 54.352 16C54.5013 16.5547 54.736 17.056 55.056 17.504C55.376 17.952 55.7867 18.3147 56.288 18.592C56.7893 18.8587 57.3867 18.992 58.08 18.992ZM64.5402 11.728H65.9002V15.68L69.6922 11.728H71.5002L67.8362 15.312L71.9323 20H70.1883L66.7322 16.064L65.9002 16.88V20H64.5402V11.728ZM74.3221 12.928H71.3621V11.728H78.6421V12.928H75.6821V20H74.3221V12.928ZM80.8324 16.768C80.2457 16.6827 79.7657 16.416 79.3924 15.968C79.019 15.52 78.8324 14.9547 78.8324 14.272C78.8324 13.4933 79.0617 12.8747 79.5204 12.416C79.9897 11.9573 80.6244 11.728 81.4244 11.728H85.6164V20H84.2564V16.816H82.4484L79.9204 20H78.1124L80.8324 16.768ZM84.2564 15.648V12.928H81.8564C81.2804 12.928 80.8644 13.0507 80.6084 13.296C80.3524 13.5413 80.2244 13.872 80.2244 14.288C80.2244 14.7147 80.3524 15.0507 80.6084 15.296C80.8644 15.5307 81.2804 15.648 81.8564 15.648H84.2564ZM90.7225 20.176C89.6558 20.176 88.7918 19.904 88.1305 19.36C87.4798 18.816 87.0692 17.9733 86.8985 16.832C86.8345 16.384 86.8025 15.8827 86.8025 15.328C86.8025 14.9333 86.8132 14.5227 86.8345 14.096C86.8665 13.6693 86.9145 13.248 86.9785 12.832C87.0532 12.416 87.1492 12.016 87.2665 11.632C87.3945 11.248 87.5598 10.9013 87.7625 10.592C88.1252 10.0267 88.5678 9.61067 89.0905 9.344C89.6132 9.06667 90.2692 8.90133 91.0585 8.848C91.5812 8.80533 92.0185 8.75733 92.3705 8.704C92.7225 8.65067 92.9198 8.51733 92.9625 8.304H94.3225C94.3012 8.72 94.2105 9.04 94.0505 9.264C93.8905 9.488 93.6665 9.65867 93.3785 9.776C93.0905 9.88267 92.7385 9.95733 92.3225 10C91.9065 10.032 91.4212 10.0693 90.8665 10.112C90.4078 10.144 90.0078 10.2507 89.6665 10.432C89.3252 10.6133 89.0318 10.8587 88.7865 11.168C88.5518 11.4667 88.3598 11.824 88.2105 12.24C88.0612 12.6453 87.9545 13.0933 87.8905 13.584H87.9385C88.1732 13.04 88.5358 12.592 89.0265 12.24C89.5278 11.888 90.1305 11.712 90.8345 11.712C91.9972 11.712 92.9145 12.0747 93.5865 12.8C94.2585 13.5253 94.5945 14.5707 94.5945 15.936C94.5945 16.6293 94.4985 17.2427 94.3065 17.776C94.1252 18.2987 93.8638 18.7413 93.5225 19.104C93.1812 19.456 92.7705 19.7227 92.2905 19.904C91.8212 20.0853 91.2985 20.176 90.7225 20.176ZM90.7385 19.024C91.0585 19.024 91.3678 18.96 91.6665 18.832C91.9652 18.6933 92.2265 18.496 92.4505 18.24C92.6745 17.984 92.8558 17.6693 92.9945 17.296C93.1332 16.912 93.2025 16.4693 93.2025 15.968C93.2025 14.9973 92.9785 14.2347 92.5305 13.68C92.0825 13.1253 91.4745 12.848 90.7065 12.848C89.9385 12.848 89.3252 13.1307 88.8665 13.696C88.4185 14.2507 88.1945 15.0133 88.1945 15.984C88.1945 16.9227 88.4185 17.664 88.8665 18.208C89.3145 18.752 89.9385 19.024 90.7385 19.024ZM95.6064 11.728H96.9664V12.848H96.9984C97.2224 12.3893 97.5744 12.0587 98.0544 11.856C98.5344 11.6427 99.0624 11.536 99.6384 11.536C100.278 11.536 100.833 11.6533 101.302 11.888C101.782 12.1227 102.177 12.4427 102.486 12.848C102.806 13.2427 103.046 13.7013 103.206 14.224C103.366 14.7467 103.446 15.3013 103.446 15.888C103.446 16.4853 103.366 17.0453 103.206 17.568C103.057 18.08 102.822 18.5333 102.502 18.928C102.193 19.312 101.798 19.616 101.318 19.84C100.849 20.064 100.3 20.176 99.6704 20.176C99.457 20.176 99.2277 20.1547 98.9824 20.112C98.737 20.0693 98.4917 20 98.2464 19.904C98.001 19.808 97.7664 19.68 97.5424 19.52C97.329 19.3493 97.1477 19.1413 96.9984 18.896H96.9664V23.152H95.6064V11.728ZM99.5264 18.992C99.985 18.992 100.374 18.9013 100.694 18.72C101.014 18.5387 101.27 18.2987 101.462 18C101.654 17.7013 101.793 17.36 101.878 16.976C101.964 16.592 102.006 16.1973 102.006 15.792C102.006 15.408 101.953 15.0347 101.846 14.672C101.75 14.2987 101.596 13.968 101.382 13.68C101.18 13.392 100.913 13.1627 100.582 12.992C100.262 12.8213 99.8837 12.736 99.4464 12.736C98.9877 12.736 98.5984 12.8267 98.2784 13.008C97.9584 13.1893 97.697 13.4293 97.4944 13.728C97.2917 14.016 97.1424 14.3467 97.0464 14.72C96.961 15.0933 96.9184 15.472 96.9184 15.856C96.9184 16.2613 96.9664 16.656 97.0624 17.04C97.1584 17.4133 97.3077 17.744 97.5104 18.032C97.7237 18.32 97.9957 18.5547 98.3264 18.736C98.657 18.9067 99.057 18.992 99.5264 18.992ZM106.147 16.768C105.56 16.6827 105.08 16.416 104.707 15.968C104.333 15.52 104.147 14.9547 104.147 14.272C104.147 13.4933 104.376 12.8747 104.835 12.416C105.304 11.9573 105.939 11.728 106.739 11.728H110.931V20H109.571V16.816H107.763L105.235 20H103.427L106.147 16.768ZM109.571 15.648V12.928H107.171C106.595 12.928 106.179 13.0507 105.923 13.296C105.667 13.5413 105.539 13.872 105.539 14.288C105.539 14.7147 105.667 15.0507 105.923 15.296C106.179 15.5307 106.595 15.648 107.171 15.648H109.571Z" fill="white"/>
<path d="M53.116 33V24.528H54.304V28.092H55.564L57.712 24.528H59.02L56.548 28.548V28.572L59.176 33H57.82L55.564 29.124H54.304V33H53.116ZM59.0787 29.952C59.0787 29.048 59.3947 28.296 60.0267 27.696C60.6587 27.088 61.4307 26.784 62.3427 26.784C63.2627 26.784 64.0387 27.084 64.6707 27.684C65.3027 28.284 65.6187 29.04 65.6187 29.952C65.6187 30.864 65.3027 31.624 64.6707 32.232C64.0387 32.84 63.2667 33.144 62.3547 33.144C61.4427 33.144 60.6667 32.84 60.0267 32.232C59.3947 31.624 59.0787 30.864 59.0787 29.952ZM60.2667 29.952C60.2667 30.584 60.4667 31.108 60.8667 31.524C61.2747 31.932 61.7707 32.136 62.3547 32.136C62.9307 32.136 63.4227 31.928 63.8307 31.512C64.2387 31.096 64.4427 30.576 64.4427 29.952C64.4427 29.328 64.2387 28.812 63.8307 28.404C63.4227 27.996 62.9307 27.792 62.3547 27.792C61.7707 27.792 61.2747 27.996 60.8667 28.404C60.4667 28.812 60.2667 29.328 60.2667 29.952ZM66.5416 33V26.928H67.7056V29.4H70.7776V26.928H71.9416V33H70.7776V30.396H67.7056V33H66.5416ZM72.8609 29.964C72.8609 29.012 73.1489 28.244 73.7249 27.66C74.3009 27.076 75.0289 26.784 75.9089 26.784C76.7329 26.784 77.3769 27.056 77.8409 27.6C78.3049 28.136 78.5369 28.812 78.5369 29.628C78.5369 29.732 78.5209 29.896 78.4889 30.12H74.0729C74.1049 30.752 74.3169 31.248 74.7089 31.608C75.1089 31.96 75.5929 32.136 76.1609 32.136C76.8249 32.136 77.4209 31.9 77.9489 31.428L78.4409 32.28C78.1529 32.544 77.7929 32.756 77.3609 32.916C76.9369 33.068 76.5129 33.144 76.0889 33.144C75.1449 33.144 74.3689 32.844 73.7609 32.244C73.1609 31.636 72.8609 30.876 72.8609 29.964ZM74.1089 29.28H77.3609C77.3449 28.776 77.1969 28.384 76.9169 28.104C76.6449 27.824 76.3009 27.684 75.8849 27.684C75.4289 27.684 75.0369 27.828 74.7089 28.116C74.3889 28.396 74.1889 28.784 74.1089 29.28ZM79.4566 33V26.928H80.6206V31.992H83.5126V26.928H84.6886V31.992H85.5406V34.44H84.4726V33H79.4566ZM88.3168 31.344C88.3168 30.896 88.4408 30.52 88.6888 30.216C88.9368 29.912 89.2648 29.696 89.6728 29.568C90.0888 29.432 90.4728 29.34 90.8248 29.292C91.1768 29.244 91.5488 29.22 91.9408 29.22H92.2528V29.1C92.2528 28.212 91.8088 27.768 90.9208 27.768C90.3368 27.768 89.7688 27.964 89.2168 28.356L88.7488 27.504C88.9968 27.296 89.3328 27.124 89.7568 26.988C90.1808 26.852 90.6008 26.784 91.0168 26.784C91.7848 26.784 92.3768 26.988 92.7928 27.396C93.2088 27.804 93.4168 28.392 93.4168 29.16V33H92.3248V32.388L92.3608 31.908H92.3368C92.1528 32.268 91.8808 32.564 91.5208 32.796C91.1688 33.028 90.7768 33.144 90.3448 33.144C89.7928 33.144 89.3168 32.98 88.9168 32.652C88.5168 32.324 88.3168 31.888 88.3168 31.344ZM89.4808 31.248C89.4808 31.512 89.5808 31.74 89.7808 31.932C89.9808 32.124 90.2608 32.22 90.6208 32.22C91.1008 32.22 91.4928 32.02 91.7968 31.62C92.1008 31.22 92.2528 30.776 92.2528 30.288V30.06H91.9528C90.3048 30.06 89.4808 30.456 89.4808 31.248ZM94.6572 33V26.928H95.8212V29.376H96.6732L98.3292 26.928H99.6492L97.6212 29.82V29.844L99.8892 33H98.5092L96.6972 30.372H95.8212V33H94.6572ZM100.447 33V26.928H101.611V31.992H104.503V26.928H105.679V31.992H106.531V34.44H105.463V33H100.447ZM107.291 33V26.928H108.407V30.552C108.407 30.976 108.395 31.248 108.371 31.368H108.395C108.435 31.272 108.615 31 108.935 30.552L111.551 26.928H112.679V33H111.551V29.376C111.551 29.264 111.555 29.108 111.563 28.908C111.579 28.7 111.587 28.588 111.587 28.572H111.563C111.555 28.588 111.379 28.856 111.035 29.376L108.407 33H107.291ZM113.983 33V26.928H115.099V30.552C115.099 30.976 115.087 31.248 115.063 31.368H115.087C115.127 31.272 115.307 31 115.627 30.552L118.243 26.928H119.371V33H118.243V29.376C118.243 29.264 118.247 29.108 118.255 28.908C118.271 28.7 118.279 28.588 118.279 28.572H118.255C118.247 28.588 118.071 28.856 117.727 29.376L115.099 33H113.983Z" fill="#D2E400"/>
<path d="M9.32 19.26C9.26 18.18 9.37 17.18 9.65 16.26C9.93 15.34 10.36 14.55 10.94 13.89C11.54 13.21 12.28 12.68 13.16 12.3C14.04 11.92 15.04 11.73 16.16 11.73C17.08 11.73 17.94 11.87 18.74 12.15C19.56 12.41 20.27 12.8 20.87 13.32C21.47 13.82 21.94 14.45 22.28 15.21C22.64 15.97 22.82 16.85 22.82 17.85C22.82 18.79 22.67 19.62 22.37 20.34C22.09 21.06 21.71 21.71 21.23 22.29C20.75 22.85 20.2 23.36 19.58 23.82C18.96 24.28 18.32 24.72 17.66 25.14C17 25.54 16.34 25.94 15.68 26.34C15.02 26.72 14.41 27.13 13.85 27.57C13.31 28.01 12.84 28.49 12.44 29.01C12.06 29.51 11.81 30.09 11.69 30.75H22.61V33H8.72C8.82 31.74 9.04 30.67 9.38 29.79C9.74 28.89 10.19 28.11 10.73 27.45C11.27 26.79 11.88 26.21 12.56 25.71C13.24 25.21 13.95 24.74 14.69 24.3C15.59 23.74 16.38 23.23 17.06 22.77C17.74 22.29 18.3 21.81 18.74 21.33C19.2 20.85 19.54 20.33 19.76 19.77C20 19.21 20.12 18.56 20.12 17.82C20.12 17.24 20.01 16.72 19.79 16.26C19.57 15.78 19.27 15.37 18.89 15.03C18.53 14.69 18.1 14.43 17.6 14.25C17.1 14.07 16.57 13.98 16.01 13.98C15.27 13.98 14.63 14.14 14.09 14.46C13.57 14.76 13.14 15.16 12.8 15.66C12.46 16.16 12.21 16.73 12.05 17.37C11.91 17.99 11.85 18.62 11.87 19.26H9.32ZM34.1499 33H31.5999V17.76H26.0799V15.72C26.7999 15.72 27.4999 15.67 28.1799 15.57C28.8599 15.45 29.4699 15.24 30.0099 14.94C30.5699 14.64 31.0399 14.23 31.4199 13.71C31.7999 13.19 32.0599 12.53 32.1999 11.73H34.1499V33Z" fill="white"/>
</svg>
