<svg width="173" height="44" viewBox="0 0 173 44" fill="none" xmlns="http://www.w3.org/2000/svg">
<rect width="173" height="44" rx="10" fill="#424242" fill-opacity="0.8"/>
<path d="M53.248 8.576H54.768V13.488H60.784V8.576H62.304V20H60.784V14.768H54.768V20H53.248V8.576ZM67.4989 20.176C66.8375 20.176 66.2562 20.0693 65.7549 19.856C65.2642 19.632 64.8482 19.328 64.5069 18.944C64.1655 18.5493 63.9095 18.0907 63.7389 17.568C63.5682 17.0453 63.4829 16.48 63.4829 15.872C63.4829 15.264 63.5682 14.6987 63.7389 14.176C63.9095 13.6427 64.1655 13.184 64.5069 12.8C64.8482 12.4053 65.2642 12.096 65.7549 11.872C66.2562 11.648 66.8375 11.536 67.4989 11.536C68.1495 11.536 68.7255 11.648 69.2269 11.872C69.7282 12.096 70.1495 12.4053 70.4909 12.8C70.8322 13.184 71.0882 13.6427 71.2589 14.176C71.4295 14.6987 71.5149 15.264 71.5149 15.872C71.5149 16.48 71.4295 17.0453 71.2589 17.568C71.0882 18.0907 70.8322 18.5493 70.4909 18.944C70.1495 19.328 69.7282 19.632 69.2269 19.856C68.7255 20.0693 68.1495 20.176 67.4989 20.176ZM67.4989 18.992C67.8509 18.992 68.1815 18.9227 68.4909 18.784C68.8109 18.6453 69.0882 18.448 69.3229 18.192C69.5575 17.9253 69.7389 17.6 69.8669 17.216C70.0055 16.8213 70.0749 16.3733 70.0749 15.872C70.0749 15.3707 70.0055 14.928 69.8669 14.544C69.7389 14.1493 69.5575 13.8187 69.3229 13.552C69.0882 13.2853 68.8109 13.0827 68.4909 12.944C68.1815 12.8053 67.8509 12.736 67.4989 12.736C67.1469 12.736 66.8109 12.8053 66.4909 12.944C66.1815 13.0827 65.9095 13.2853 65.6749 13.552C65.4402 13.8187 65.2535 14.1493 65.1149 14.544C64.9869 14.928 64.9229 15.3707 64.9229 15.872C64.9229 16.3733 64.9869 16.8213 65.1149 17.216C65.2535 17.6 65.4402 17.9253 65.6749 18.192C65.9095 18.448 66.1815 18.6453 66.4909 18.784C66.8109 18.9227 67.1469 18.992 67.4989 18.992ZM74.2224 16.768C73.6357 16.6827 73.1557 16.416 72.7824 15.968C72.409 15.52 72.2224 14.9547 72.2224 14.272C72.2224 13.4933 72.4517 12.8747 72.9104 12.416C73.3797 11.9573 74.0144 11.728 74.8144 11.728H79.0064V20H77.6464V16.816H75.8384L73.3104 20H71.5024L74.2224 16.768ZM77.6464 15.648V12.928H75.2464C74.6704 12.928 74.2544 13.0507 73.9984 13.296C73.7424 13.5413 73.6144 13.872 73.6144 14.288C73.6144 14.7147 73.7424 15.0507 73.9984 15.296C74.2544 15.5307 74.6704 15.648 75.2464 15.648H77.6464ZM84.1125 20.176C83.0458 20.176 82.1818 19.904 81.5205 19.36C80.8698 18.816 80.4592 17.9733 80.2885 16.832C80.2245 16.384 80.1925 15.8827 80.1925 15.328C80.1925 14.9333 80.2032 14.5227 80.2245 14.096C80.2565 13.6693 80.3045 13.248 80.3685 12.832C80.4432 12.416 80.5392 12.016 80.6565 11.632C80.7845 11.248 80.9498 10.9013 81.1525 10.592C81.5152 10.0267 81.9578 9.61067 82.4805 9.344C83.0032 9.06667 83.6592 8.90133 84.4485 8.848C84.9712 8.80533 85.4085 8.75733 85.7605 8.704C86.1125 8.65067 86.3098 8.51733 86.3525 8.304H87.7125C87.6912 8.72 87.6005 9.04 87.4405 9.264C87.2805 9.488 87.0565 9.65867 86.7685 9.776C86.4805 9.88267 86.1285 9.95733 85.7125 10C85.2965 10.032 84.8112 10.0693 84.2565 10.112C83.7978 10.144 83.3978 10.2507 83.0565 10.432C82.7152 10.6133 82.4218 10.8587 82.1765 11.168C81.9418 11.4667 81.7498 11.824 81.6005 12.24C81.4512 12.6453 81.3445 13.0933 81.2805 13.584H81.3285C81.5632 13.04 81.9258 12.592 82.4165 12.24C82.9178 11.888 83.5205 11.712 84.2245 11.712C85.3872 11.712 86.3045 12.0747 86.9765 12.8C87.6485 13.5253 87.9845 14.5707 87.9845 15.936C87.9845 16.6293 87.8885 17.2427 87.6965 17.776C87.5152 18.2987 87.2538 18.7413 86.9125 19.104C86.5712 19.456 86.1605 19.7227 85.6805 19.904C85.2112 20.0853 84.6885 20.176 84.1125 20.176ZM84.1285 19.024C84.4485 19.024 84.7578 18.96 85.0565 18.832C85.3552 18.6933 85.6165 18.496 85.8405 18.24C86.0645 17.984 86.2458 17.6693 86.3845 17.296C86.5232 16.912 86.5925 16.4693 86.5925 15.968C86.5925 14.9973 86.3685 14.2347 85.9205 13.68C85.4725 13.1253 84.8645 12.848 84.0965 12.848C83.3285 12.848 82.7152 13.1307 82.2565 13.696C81.8085 14.2507 81.5845 15.0133 81.5845 15.984C81.5845 16.9227 81.8085 17.664 82.2565 18.208C82.7045 18.752 83.3285 19.024 84.1285 19.024ZM88.9964 11.728H90.3564V12.848H90.3884C90.6124 12.3893 90.9644 12.0587 91.4444 11.856C91.9244 11.6427 92.4524 11.536 93.0284 11.536C93.6684 11.536 94.223 11.6533 94.6924 11.888C95.1724 12.1227 95.567 12.4427 95.8764 12.848C96.1964 13.2427 96.4364 13.7013 96.5964 14.224C96.7564 14.7467 96.8364 15.3013 96.8364 15.888C96.8364 16.4853 96.7564 17.0453 96.5964 17.568C96.447 18.08 96.2124 18.5333 95.8924 18.928C95.583 19.312 95.1884 19.616 94.7084 19.84C94.239 20.064 93.6897 20.176 93.0604 20.176C92.847 20.176 92.6177 20.1547 92.3724 20.112C92.127 20.0693 91.8817 20 91.6364 19.904C91.391 19.808 91.1564 19.68 90.9324 19.52C90.719 19.3493 90.5377 19.1413 90.3884 18.896H90.3564V23.152H88.9964V11.728ZM92.9164 18.992C93.375 18.992 93.7644 18.9013 94.0844 18.72C94.4044 18.5387 94.6604 18.2987 94.8524 18C95.0444 17.7013 95.183 17.36 95.2684 16.976C95.3537 16.592 95.3964 16.1973 95.3964 15.792C95.3964 15.408 95.343 15.0347 95.2364 14.672C95.1404 14.2987 94.9857 13.968 94.7724 13.68C94.5697 13.392 94.303 13.1627 93.9724 12.992C93.6524 12.8213 93.2737 12.736 92.8364 12.736C92.3777 12.736 91.9884 12.8267 91.6684 13.008C91.3484 13.1893 91.087 13.4293 90.8844 13.728C90.6817 14.016 90.5324 14.3467 90.4364 14.72C90.351 15.0933 90.3084 15.472 90.3084 15.856C90.3084 16.2613 90.3564 16.656 90.4524 17.04C90.5484 17.4133 90.6977 17.744 90.9004 18.032C91.1137 18.32 91.3857 18.5547 91.7164 18.736C92.047 18.9067 92.447 18.992 92.9164 18.992ZM99.5367 16.768C98.9501 16.6827 98.4701 16.416 98.0967 15.968C97.7234 15.52 97.5367 14.9547 97.5367 14.272C97.5367 13.4933 97.7661 12.8747 98.2247 12.416C98.6941 11.9573 99.3287 11.728 100.129 11.728H104.321V20H102.961V16.816H101.153L98.6247 20H96.8167L99.5367 16.768ZM102.961 15.648V12.928H100.561C99.9847 12.928 99.5687 13.0507 99.3127 13.296C99.0567 13.5413 98.9287 13.872 98.9287 14.288C98.9287 14.7147 99.0567 15.0507 99.3127 15.296C99.5687 15.5307 99.9847 15.648 100.561 15.648H102.961Z" fill="white"/>
<path d="M53.116 33V24.528H58.12V25.56H54.304V27.924H56.164C56.924 27.924 57.544 28.152 58.024 28.608C58.504 29.056 58.744 29.68 58.744 30.48C58.744 31.232 58.508 31.84 58.036 32.304C57.572 32.768 56.968 33 56.224 33H53.116ZM54.304 31.968H56.032C56.504 31.968 56.872 31.836 57.136 31.572C57.408 31.308 57.544 30.944 57.544 30.48C57.544 30.016 57.404 29.648 57.124 29.376C56.852 29.096 56.48 28.956 56.008 28.956H54.304V31.968ZM58.9553 33.06V32.016C59.4113 31.944 59.7513 31.66 59.9753 31.164C60.2073 30.66 60.3233 29.872 60.3233 28.8V26.928H64.3913V33H63.2273V27.888H61.4393V28.8C61.4393 30.2 61.2433 31.248 60.8513 31.944C60.4673 32.64 59.8353 33.012 58.9553 33.06ZM65.7095 33V26.928H66.8255V30.552C66.8255 30.976 66.8135 31.248 66.7895 31.368H66.8135C66.8535 31.272 67.0335 31 67.3535 30.552L69.9695 26.928H71.0975V33H69.9695V29.376C69.9695 29.264 69.9735 29.108 69.9815 28.908C69.9975 28.7 70.0055 28.588 70.0055 28.572H69.9815C69.9735 28.588 69.7975 28.856 69.4535 29.376L66.8255 33H65.7095ZM71.7054 33L73.6614 29.88V29.856L71.8734 26.928H73.1094L74.5974 29.412H75.4614V26.928H76.5654V29.412H77.4294L78.9294 26.928H80.1534L78.3774 29.856V29.88L80.3334 33H79.0254L77.4414 30.408H76.5654V33H75.4614V30.408H74.5974L73.0014 33H71.7054ZM80.4408 31.344C80.4408 30.896 80.5648 30.52 80.8128 30.216C81.0608 29.912 81.3888 29.696 81.7968 29.568C82.2128 29.432 82.5968 29.34 82.9488 29.292C83.3008 29.244 83.6728 29.22 84.0648 29.22H84.3768V29.1C84.3768 28.212 83.9328 27.768 83.0448 27.768C82.4608 27.768 81.8928 27.964 81.3408 28.356L80.8728 27.504C81.1208 27.296 81.4568 27.124 81.8808 26.988C82.3048 26.852 82.7248 26.784 83.1408 26.784C83.9088 26.784 84.5008 26.988 84.9168 27.396C85.3328 27.804 85.5408 28.392 85.5408 29.16V33H84.4488V32.388L84.4848 31.908H84.4608C84.2768 32.268 84.0048 32.564 83.6448 32.796C83.2928 33.028 82.9008 33.144 82.4688 33.144C81.9168 33.144 81.4408 32.98 81.0408 32.652C80.6408 32.324 80.4408 31.888 80.4408 31.344ZM81.6048 31.248C81.6048 31.512 81.7048 31.74 81.9048 31.932C82.1048 32.124 82.3848 32.22 82.7448 32.22C83.2248 32.22 83.6168 32.02 83.9208 31.62C84.2248 31.22 84.3768 30.776 84.3768 30.288V30.06H84.0768C82.4288 30.06 81.6048 30.456 81.6048 31.248ZM89.4572 26.232C88.9692 26.232 88.5492 26.096 88.1972 25.824C87.8532 25.544 87.6812 25.168 87.6812 24.696V24.516H88.6172V24.684C88.6172 24.932 88.7012 25.128 88.8692 25.272C89.0372 25.408 89.2332 25.476 89.4572 25.476C89.6892 25.476 89.8892 25.408 90.0572 25.272C90.2252 25.128 90.3092 24.928 90.3092 24.672V24.516H91.2332V24.696C91.2332 25.168 91.0612 25.544 90.7172 25.824C90.3732 26.096 89.9532 26.232 89.4572 26.232ZM86.7812 33V26.928H87.8972V30.552C87.8972 30.976 87.8852 31.248 87.8612 31.368H87.8852C87.9252 31.272 88.1052 31 88.4252 30.552L91.0412 26.928H92.1692V33H91.0412V29.376C91.0412 29.264 91.0452 29.108 91.0532 28.908C91.0692 28.7 91.0772 28.588 91.0772 28.572H91.0532C91.0452 28.588 90.8692 28.856 90.5252 29.376L87.8972 33H86.7812ZM93.4731 33V26.928H94.5891V31.992H96.8331V26.928H97.9611V31.992H100.205V26.928H101.321V33H93.4731ZM102.638 33V26.928H103.754V30.552C103.754 30.976 103.742 31.248 103.718 31.368H103.742C103.782 31.272 103.962 31 104.282 30.552L106.898 26.928H108.026V33H106.898V29.376C106.898 29.264 106.902 29.108 106.91 28.908C106.926 28.7 106.934 28.588 106.934 28.572H106.91C106.902 28.588 106.726 28.856 106.382 29.376L103.754 33H102.638ZM112.006 26.232C111.518 26.232 111.098 26.096 110.746 25.824C110.402 25.544 110.23 25.168 110.23 24.696V24.516H111.166V24.684C111.166 24.932 111.25 25.128 111.418 25.272C111.586 25.408 111.782 25.476 112.006 25.476C112.238 25.476 112.438 25.408 112.606 25.272C112.774 25.128 112.858 24.928 112.858 24.672V24.516H113.782V24.696C113.782 25.168 113.61 25.544 113.266 25.824C112.922 26.096 112.502 26.232 112.006 26.232ZM109.33 33V26.928H110.446V30.552C110.446 30.976 110.434 31.248 110.41 31.368H110.434C110.474 31.272 110.654 31 110.974 30.552L113.59 26.928H114.718V33H113.59V29.376C113.59 29.264 113.594 29.108 113.602 28.908C113.618 28.7 113.626 28.588 113.626 28.572H113.602C113.594 28.588 113.418 28.856 113.074 29.376L110.446 33H109.33ZM118.145 29.964C118.145 29.06 118.449 28.304 119.057 27.696C119.673 27.088 120.453 26.784 121.397 26.784C122.357 26.784 123.117 27.08 123.677 27.672L123.125 28.488C122.661 28.024 122.101 27.792 121.445 27.792C120.837 27.792 120.333 28 119.933 28.416C119.533 28.824 119.333 29.336 119.333 29.952C119.333 30.576 119.533 31.096 119.933 31.512C120.341 31.928 120.857 32.136 121.481 32.136C121.817 32.136 122.153 32.064 122.489 31.92C122.833 31.768 123.121 31.568 123.353 31.32L123.821 32.172C123.541 32.468 123.185 32.704 122.753 32.88C122.321 33.056 121.869 33.144 121.397 33.144C120.445 33.144 119.665 32.844 119.057 32.244C118.449 31.644 118.145 30.884 118.145 29.964ZM126.064 33V27.924H123.952V26.928H129.34V27.924H127.216V33H126.064ZM129.441 31.344C129.441 30.896 129.565 30.52 129.813 30.216C130.061 29.912 130.389 29.696 130.797 29.568C131.213 29.432 131.597 29.34 131.949 29.292C132.301 29.244 132.673 29.22 133.065 29.22H133.377V29.1C133.377 28.212 132.933 27.768 132.045 27.768C131.461 27.768 130.893 27.964 130.341 28.356L129.873 27.504C130.121 27.296 130.457 27.124 130.881 26.988C131.305 26.852 131.725 26.784 132.141 26.784C132.909 26.784 133.501 26.988 133.917 27.396C134.333 27.804 134.541 28.392 134.541 29.16V33H133.449V32.388L133.485 31.908H133.461C133.277 32.268 133.005 32.564 132.645 32.796C132.293 33.028 131.901 33.144 131.469 33.144C130.917 33.144 130.441 32.98 130.041 32.652C129.641 32.324 129.441 31.888 129.441 31.344ZM130.605 31.248C130.605 31.512 130.705 31.74 130.905 31.932C131.105 32.124 131.385 32.22 131.745 32.22C132.225 32.22 132.617 32.02 132.921 31.62C133.225 31.22 133.377 30.776 133.377 30.288V30.06H133.077C131.429 30.06 130.605 30.456 130.605 31.248ZM135.781 35.4V26.928H136.861V27.468L136.825 27.924H136.849C137.041 27.564 137.317 27.284 137.677 27.084C138.037 26.884 138.441 26.784 138.889 26.784C139.705 26.784 140.353 27.076 140.833 27.66C141.313 28.244 141.553 29.012 141.553 29.964C141.553 30.924 141.297 31.696 140.785 32.28C140.273 32.856 139.613 33.144 138.805 33.144C137.997 33.144 137.369 32.8 136.921 32.112H136.897C136.929 32.256 136.945 32.432 136.945 32.64V35.4H135.781ZM136.909 29.988C136.909 30.564 137.061 31.068 137.365 31.5C137.677 31.924 138.097 32.136 138.625 32.136C139.121 32.136 139.537 31.944 139.873 31.56C140.209 31.168 140.377 30.64 140.377 29.976C140.377 29.32 140.217 28.796 139.897 28.404C139.585 28.004 139.173 27.804 138.661 27.804C138.165 27.804 137.749 27.988 137.413 28.356C137.077 28.724 136.909 29.268 136.909 29.988ZM143.855 33V27.924H141.743V26.928H147.131V27.924H145.007V33H143.855Z" fill="#D2E400"/>
<path d="M11.96 22.53C11.96 23.33 11.98 24.23 12.02 25.23C12.08 26.21 12.24 27.14 12.5 28.02C12.78 28.88 13.22 29.61 13.82 30.21C14.42 30.81 15.26 31.11 16.34 31.11C17.42 31.11 18.26 30.81 18.86 30.21C19.46 29.61 19.89 28.88 20.15 28.02C20.43 27.14 20.59 26.21 20.63 25.23C20.69 24.23 20.72 23.33 20.72 22.53C20.72 22.01 20.71 21.44 20.69 20.82C20.69 20.18 20.64 19.55 20.54 18.93C20.46 18.29 20.33 17.67 20.15 17.07C19.99 16.47 19.74 15.95 19.4 15.51C19.08 15.05 18.67 14.68 18.17 14.4C17.67 14.12 17.06 13.98 16.34 13.98C15.62 13.98 15.01 14.12 14.51 14.4C14.01 14.68 13.59 15.05 13.25 15.51C12.93 15.95 12.68 16.47 12.5 17.07C12.34 17.67 12.21 18.29 12.11 18.93C12.03 19.55 11.98 20.18 11.96 20.82C11.96 21.44 11.96 22.01 11.96 22.53ZM9.26 22.56C9.26 21.78 9.28 20.97 9.32 20.13C9.36 19.29 9.46 18.47 9.62 17.67C9.78 16.87 10.01 16.11 10.31 15.39C10.61 14.67 11.02 14.04 11.54 13.5C12.06 12.96 12.71 12.53 13.49 12.21C14.29 11.89 15.24 11.73 16.34 11.73C17.44 11.73 18.38 11.89 19.16 12.21C19.96 12.53 20.62 12.96 21.14 13.5C21.66 14.04 22.07 14.67 22.37 15.39C22.67 16.11 22.9 16.87 23.06 17.67C23.22 18.47 23.32 19.29 23.36 20.13C23.4 20.97 23.42 21.78 23.42 22.56C23.42 23.34 23.4 24.15 23.36 24.99C23.32 25.83 23.22 26.65 23.06 27.45C22.9 28.25 22.67 29.01 22.37 29.73C22.07 30.43 21.66 31.05 21.14 31.59C20.62 32.13 19.97 32.56 19.19 32.88C18.41 33.18 17.46 33.33 16.34 33.33C15.24 33.33 14.29 33.18 13.49 32.88C12.71 32.56 12.06 32.13 11.54 31.59C11.02 31.05 10.61 30.43 10.31 29.73C10.01 29.01 9.78 28.25 9.62 27.45C9.46 26.65 9.36 25.83 9.32 24.99C9.28 24.15 9.26 23.34 9.26 22.56ZM34.1499 33H31.5999V17.76H26.0799V15.72C26.7999 15.72 27.4999 15.67 28.1799 15.57C28.8599 15.45 29.4699 15.24 30.0099 14.94C30.5699 14.64 31.0399 14.23 31.4199 13.71C31.7999 13.19 32.0599 12.53 32.1999 11.73H34.1499V33Z" fill="white"/>
</svg>
